<svg viewBox="0 0 24 24" fill="none" fill="#929188" xmlns="http://www.w3.org/2000/svg">
<path fill-rule="evenodd" clip-rule="evenodd" d="M5.99997 7.55328C4.82063 7.55328 3.6896 8.02177 2.85569 8.85569C2.02177 9.6896 1.55328 10.8206 1.55328 12C1.55328 13.1793 2.02177 14.3103 2.85569 15.1443C3.2686 15.5572 3.7588 15.8847 4.2983 16.1082C4.83779 16.3316 5.41602 16.4467 5.99997 16.4467H8.99997C9.30556 16.4467 9.55328 16.6944 9.55328 17C9.55328 17.3056 9.30556 17.5533 8.99997 17.5533H5.99997C5.2707 17.5533 4.54857 17.4096 3.87481 17.1306C3.20105 16.8515 2.58886 16.4424 2.07318 15.9268C1.03173 14.8853 0.446655 13.4728 0.446655 12C0.446655 10.5271 1.03173 9.11463 2.07318 8.07318C3.11463 7.03173 4.52714 6.44666 5.99997 6.44666H8.99997C9.30556 6.44666 9.55328 6.69438 9.55328 6.99997C9.55328 7.30556 9.30556 7.55328 8.99997 7.55328H5.99997ZM14.4467 6.99997C14.4467 6.69438 14.6944 6.44666 15 6.44666H18C18.7292 6.44666 19.4514 6.5903 20.1251 6.86938C20.7989 7.14846 21.4111 7.55751 21.9268 8.07318C22.4424 8.58886 22.8515 9.20105 23.1306 9.87481C23.4096 10.5486 23.5533 11.2707 23.5533 12C23.5533 12.7292 23.4096 13.4514 23.1306 14.1251C22.8515 14.7989 22.4424 15.4111 21.9268 15.9268C21.4111 16.4424 20.7989 16.8515 20.1251 17.1306C19.4514 17.4096 18.7292 17.5533 18 17.5533H15C14.6944 17.5533 14.4467 17.3056 14.4467 17C14.4467 16.6944 14.6944 16.4467 15 16.4467H18C18.5839 16.4467 19.1621 16.3316 19.7016 16.1082C20.2411 15.8847 20.7313 15.5572 21.1443 15.1443C21.5572 14.7313 21.8847 14.2411 22.1082 13.7016C22.3316 13.1621 22.4467 12.5839 22.4467 12C22.4467 11.416 22.3316 10.8378 22.1082 10.2983C21.8847 9.7588 21.5572 9.2686 21.1443 8.85569C20.7313 8.44277 20.2411 8.11523 19.7016 7.89177C19.1621 7.6683 18.5839 7.55328 18 7.55328H15C14.6944 7.55328 14.4467 7.30556 14.4467 6.99997Z"/>
<path fill-rule="evenodd" clip-rule="evenodd" d="M6.6167 12C6.6167 11.236 7.23602 10.6167 7.99998 10.6167H16C16.764 10.6167 17.3833 11.236 17.3833 12C17.3833 12.764 16.764 13.3833 16 13.3833H7.99998C7.23602 13.3833 6.6167 12.764 6.6167 12Z"/>
</svg>
