<svg viewBox="0 0 16 16" fill="none" stroke="#1C1B1C" stroke-linecap="round" stroke-linejoin="round" xmlns="http://www.w3.org/2000/svg">
<g clip-path="url(#clip0_2_1884)">
<path d="M11.3333 1.33331H4.66665C2.8257 1.33331 1.33331 2.8257 1.33331 4.66665V11.3333C1.33331 13.1743 2.8257 14.6666 4.66665 14.6666H11.3333C13.1743 14.6666 14.6666 13.1743 14.6666 11.3333V4.66665C14.6666 2.8257 13.1743 1.33331 11.3333 1.33331Z"/>
<path d="M10.6666 7.58002C10.7489 8.13485 10.6541 8.7015 10.3958 9.19936C10.1375 9.69723 9.72871 10.101 9.2277 10.3531C8.72668 10.6053 8.15891 10.6931 7.60514 10.604C7.05136 10.5149 6.53979 10.2534 6.14317 9.85679C5.74656 9.46018 5.4851 8.9486 5.39599 8.39483C5.30688 7.84105 5.39466 7.27328 5.64683 6.77227C5.89901 6.27125 6.30274 5.86251 6.8006 5.60418C7.29847 5.34585 7.86512 5.25108 8.41995 5.33335C8.9859 5.41727 9.50985 5.68099 9.91441 6.08556C10.319 6.49012 10.5827 7.01407 10.6666 7.58002Z"/>
<path d="M11.6667 4.33331H11.6739"/>
</g>
<defs>
<clipPath id="clip0_2_1884">
<rect width="16" height="16" fill="white"/>
</clipPath>
</defs>
</svg>
