<svg viewBox="0 0 16 16" fill="none" stroke="#1C1B1C" stroke-linecap="round" stroke-linejoin="round" xmlns="http://www.w3.org/2000/svg">
<path d="M10.6667 5.33331C11.7276 5.33331 12.745 5.75474 13.4951 6.50489C14.2453 7.25503 14.6667 8.27245 14.6667 9.33331V14H12V9.33331C12 8.97969 11.8595 8.64055 11.6095 8.3905C11.3594 8.14046 11.0203 7.99998 10.6667 7.99998C10.3131 7.99998 9.97393 8.14046 9.72388 8.3905C9.47383 8.64055 9.33335 8.97969 9.33335 9.33331V14H6.66669V9.33331C6.66669 8.27245 7.08811 7.25503 7.83826 6.50489C8.58841 5.75474 9.60582 5.33331 10.6667 5.33331Z" />
<path d="M3.99998 6H1.33331V14H3.99998V6Z" />
<path d="M2.66665 3.99998C3.40303 3.99998 3.99998 3.40303 3.99998 2.66665C3.99998 1.93027 3.40303 1.33331 2.66665 1.33331C1.93027 1.33331 1.33331 1.93027 1.33331 2.66665C1.33331 3.40303 1.93027 3.99998 2.66665 3.99998Z" />
</svg>
