<svg width="16" height="16" viewBox="0 0 16 16" fill="none" xmlns="http://www.w3.org/2000/svg">
<g clip-path="url(#clip0_2_286)">
<path d="M6.66615 8.66666C6.95245 9.04942 7.31772 9.36612 7.73719 9.59529C8.15665 9.82446 8.62049 9.96074 9.09725 9.99489C9.57402 10.029 10.0525 9.96024 10.5004 9.79318C10.9482 9.62613 11.3549 9.36471 11.6928 9.02666L13.6928 7.02666C14.3 6.39799 14.636 5.55598 14.6284 4.68199C14.6208 3.808 14.2702 2.97196 13.6522 2.35394C13.0342 1.73591 12.1981 1.38535 11.3242 1.37775C10.4502 1.37016 9.60816 1.70614 8.97949 2.31333L7.83282 3.45333" stroke="#CAC4D0" stroke-width="0.780731" stroke-linecap="round" stroke-linejoin="round"/>
<path d="M9.33315 7.33332C9.04684 6.95057 8.68157 6.63387 8.26211 6.40469C7.84265 6.17552 7.37881 6.03924 6.90205 6.0051C6.42528 5.97095 5.94675 6.03974 5.49892 6.2068C5.05108 6.37386 4.6444 6.63527 4.30648 6.97332L2.30648 8.97332C1.69929 9.60199 1.3633 10.444 1.3709 11.318C1.37849 12.192 1.72906 13.028 2.34708 13.646C2.96511 14.2641 3.80115 14.6146 4.67514 14.6222C5.54913 14.6298 6.39114 14.2938 7.01981 13.6867L8.15981 12.5467" stroke="#CAC4D0" stroke-width="0.780731" stroke-linecap="round" stroke-linejoin="round"/>
</g>
<defs>
<clipPath id="clip0_2_286">
<rect width="16" height="16" fill="white"/>
</clipPath>
</defs>
</svg>
