<svg viewBox="0 0 648 357" fill="none" xmlns="http://www.w3.org/2000/svg">
<path fill-rule="evenodd" clip-rule="evenodd" d="M68.2498 169.919C54.8349 169.919 41.9694 175.248 32.4836 184.734C22.9978 194.219 17.6688 207.085 17.6688 220.5C17.6688 233.915 22.9978 246.78 32.4836 256.266C37.1805 260.963 42.7565 264.689 48.8933 267.231C55.0301 269.773 61.6074 271.081 68.2498 271.081H102.375C105.851 271.081 108.669 273.899 108.669 277.375C108.669 280.851 105.851 283.669 102.375 283.669H68.2498C59.9544 283.669 51.7401 282.035 44.0761 278.86C36.4121 275.686 29.4484 271.033 23.5826 265.167C11.7362 253.321 5.08087 237.253 5.08087 220.5C5.08087 203.746 11.7362 187.679 23.5826 175.833C35.4291 163.986 51.4964 157.331 68.2498 157.331H102.375C105.851 157.331 108.669 160.149 108.669 163.625C108.669 167.101 105.851 169.919 102.375 169.919H68.2498ZM164.331 163.625C164.331 160.149 167.149 157.331 170.625 157.331H204.75C213.045 157.331 221.26 158.965 228.924 162.139C236.588 165.314 243.551 169.967 249.417 175.833C255.283 181.698 259.936 188.662 263.11 196.326C266.285 203.99 267.919 212.204 267.919 220.5C267.919 228.795 266.285 237.01 263.11 244.674C259.936 252.338 255.283 259.301 249.417 265.167C243.551 271.033 236.588 275.686 228.924 278.86C221.26 282.035 213.045 283.669 204.75 283.669H170.625C167.149 283.669 164.331 280.851 164.331 277.375C164.331 273.899 167.149 271.081 170.625 271.081H204.75C211.392 271.081 217.97 269.773 224.106 267.231C230.243 264.689 235.819 260.963 240.516 256.266C245.213 251.569 248.939 245.993 251.481 239.856C254.023 233.72 255.331 227.142 255.331 220.5C255.331 213.857 254.023 207.28 251.481 201.143C248.939 195.007 245.213 189.431 240.516 184.734C235.819 180.037 230.243 176.311 224.106 173.769C217.97 171.227 211.392 169.919 204.75 169.919H170.625C167.149 169.919 164.331 167.101 164.331 163.625Z" fill="white"/>
<path fill-rule="evenodd" clip-rule="evenodd" d="M75.265 220.5C75.265 211.81 82.3097 204.765 90.9998 204.765H182C190.69 204.765 197.735 211.81 197.735 220.5C197.735 229.19 190.69 236.235 182 236.235H90.9998C82.3097 236.235 75.265 229.19 75.265 220.5Z" fill="white"/>
<path fill-rule="evenodd" clip-rule="evenodd" d="M304.5 57.2792C295.557 57.2792 286.98 60.8319 280.656 67.1557C274.332 73.4796 270.779 82.0566 270.779 90.9999C270.779 99.9432 274.332 108.52 280.656 114.844C283.787 117.975 287.504 120.459 291.596 122.154C295.687 123.848 300.072 124.721 304.5 124.721H327.25C329.567 124.721 331.446 126.599 331.446 128.917C331.446 131.234 329.567 133.113 327.25 133.113H304.5C298.97 133.113 293.493 132.023 288.384 129.907C283.275 127.791 278.632 124.689 274.722 120.778C266.824 112.88 262.387 102.169 262.387 90.9999C262.387 79.8309 266.824 69.1194 274.722 61.2218C282.619 53.3241 293.331 48.8873 304.5 48.8873H327.25C329.567 48.8873 331.446 50.7659 331.446 53.0832C331.446 55.4006 329.567 57.2792 327.25 57.2792H304.5ZM368.554 53.0832C368.554 50.7659 370.433 48.8873 372.75 48.8873H395.5C401.03 48.8873 406.506 49.9765 411.616 52.0929C416.725 54.2092 421.368 57.3112 425.278 61.2218C429.189 65.1323 432.291 69.7747 434.407 74.8841C436.523 79.9934 437.613 85.4696 437.613 90.9999C437.613 96.5302 436.523 102.006 434.407 107.116C432.291 112.225 429.189 116.867 425.278 120.778C421.368 124.689 416.725 127.791 411.616 129.907C406.506 132.023 401.03 133.113 395.5 133.113H372.75C370.433 133.113 368.554 131.234 368.554 128.917C368.554 126.599 370.433 124.721 372.75 124.721H395.5C399.928 124.721 404.313 123.848 408.404 122.154C412.495 120.459 416.213 117.975 419.344 114.844C422.475 111.713 424.959 107.995 426.654 103.904C428.348 99.8131 429.221 95.4282 429.221 90.9999C429.221 86.5716 428.348 82.1867 426.654 78.0955C424.959 74.0043 422.475 70.287 419.344 67.1557C416.213 64.0245 412.495 61.5406 408.404 59.846C404.313 58.1514 399.928 57.2792 395.5 57.2792H372.75C370.433 57.2792 368.554 55.4006 368.554 53.0832Z" fill="white"/>
<path fill-rule="evenodd" clip-rule="evenodd" d="M309.177 91C309.177 85.2066 313.873 80.5101 319.667 80.5101H380.333C386.127 80.5101 390.823 85.2066 390.823 91C390.823 96.7934 386.127 101.49 380.333 101.49H319.667C313.873 101.49 309.177 96.7934 309.177 91Z" fill="white"/>
<path fill-rule="evenodd" clip-rule="evenodd" d="M462 257.766C456.103 257.766 450.448 260.109 446.278 264.279C442.109 268.448 439.766 274.103 439.766 280C439.766 285.897 442.109 291.552 446.278 295.721C448.343 297.786 450.794 299.424 453.492 300.541C456.189 301.658 459.08 302.233 462 302.233H477C478.528 302.233 479.766 303.472 479.766 305C479.766 306.528 478.528 307.766 477 307.766H462C458.354 307.766 454.743 307.048 451.374 305.653C448.005 304.257 444.944 302.212 442.366 299.634C437.159 294.427 434.233 287.364 434.233 280C434.233 272.636 437.159 265.573 442.366 260.366C447.573 255.159 454.636 252.233 462 252.233H477C478.528 252.233 479.766 253.472 479.766 255C479.766 256.528 478.528 257.766 477 257.766H462ZM504.233 255C504.233 253.472 505.472 252.233 507 252.233H522C525.646 252.233 529.257 252.952 532.626 254.347C535.995 255.742 539.055 257.788 541.634 260.366C544.212 262.944 546.257 266.005 547.653 269.374C549.048 272.743 549.766 276.354 549.766 280C549.766 283.646 549.048 287.257 547.653 290.626C546.257 293.995 544.212 297.055 541.634 299.634C539.055 302.212 535.995 304.257 532.626 305.653C529.257 307.048 525.646 307.766 522 307.766H507C505.472 307.766 504.233 306.528 504.233 305C504.233 303.472 505.472 302.233 507 302.233H522C524.92 302.233 527.811 301.658 530.508 300.541C533.206 299.424 535.657 297.786 537.721 295.721C539.786 293.657 541.424 291.206 542.541 288.508C543.658 285.811 544.233 282.92 544.233 280C544.233 277.08 543.658 274.189 542.541 271.492C541.424 268.794 539.786 266.343 537.721 264.279C535.657 262.214 533.206 260.576 530.508 259.459C527.811 258.342 524.92 257.766 522 257.766H507C505.472 257.766 504.233 256.528 504.233 255Z" fill="white"/>
<path fill-rule="evenodd" clip-rule="evenodd" d="M465.083 280C465.083 276.18 468.18 273.084 472 273.084H512C515.82 273.084 518.916 276.18 518.916 280C518.916 283.82 515.82 286.916 512 286.916H472C468.18 286.916 465.083 283.82 465.083 280Z" fill="white"/>
<path fill-rule="evenodd" clip-rule="evenodd" d="M583.5 98.066C579.274 98.066 575.221 99.7447 572.233 102.733C569.245 105.721 567.566 109.774 567.566 114C567.566 118.226 569.245 122.279 572.233 125.267C573.713 126.747 575.469 127.92 577.402 128.721C579.335 129.522 581.407 129.934 583.5 129.934H594.25C595.345 129.934 596.233 130.822 596.233 131.917C596.233 133.012 595.345 133.899 594.25 133.899H583.5C580.887 133.899 578.299 133.385 575.885 132.385C573.47 131.385 571.277 129.919 569.429 128.071C565.697 124.339 563.601 119.278 563.601 114C563.601 108.722 565.697 103.661 569.429 99.929C573.161 96.1971 578.222 94.1006 583.5 94.1006H594.25C595.345 94.1006 596.233 94.9883 596.233 96.0833C596.233 97.1783 595.345 98.066 594.25 98.066H583.5ZM613.767 96.0833C613.767 94.9883 614.655 94.1006 615.75 94.1006H626.5C629.113 94.1006 631.701 94.6153 634.115 95.6153C636.529 96.6154 638.723 98.0811 640.571 99.929C642.419 101.777 643.885 103.97 644.885 106.385C645.885 108.799 646.399 111.387 646.399 114C646.399 116.613 645.885 119.201 644.885 121.615C643.885 124.029 642.419 126.223 640.571 128.071C638.723 129.919 636.529 131.385 634.115 132.385C631.701 133.385 629.113 133.899 626.5 133.899H615.75C614.655 133.899 613.767 133.012 613.767 131.917C613.767 130.822 614.655 129.934 615.75 129.934H626.5C628.592 129.934 630.664 129.522 632.598 128.721C634.531 127.92 636.287 126.747 637.767 125.267C639.247 123.787 640.42 122.031 641.221 120.098C642.022 118.164 642.434 116.092 642.434 114C642.434 111.907 642.022 109.835 641.221 107.902C640.42 105.969 639.247 104.213 637.767 102.733C636.287 101.253 634.531 100.08 632.598 99.2789C630.664 98.4781 628.592 98.066 626.5 98.066H615.75C614.655 98.066 613.767 97.1783 613.767 96.0833Z" fill="white"/>
<path fill-rule="evenodd" clip-rule="evenodd" d="M585.71 114C585.71 111.262 587.929 109.043 590.667 109.043H619.333C622.071 109.043 624.29 111.262 624.29 114C624.29 116.738 622.071 118.957 619.333 118.957H590.667C587.929 118.957 585.71 116.738 585.71 114Z" fill="white"/>
</svg>
